<svg width="12" height="12" viewBox="0 0 12 12" fill="none" xmlns="http://www.w3.org/2000/svg">
<path fill-rule="evenodd" clip-rule="evenodd" d="M6 0C9.31371 0 12 2.68629 12 6C12 9.31371 9.31371 12 6 12C2.68629 12 0 9.31371 0 6C0 2.68629 2.68629 0 6 0ZM6.00007 1.19998C3.34911 1.19998 1.20007 3.34901 1.20007 5.99998C1.20007 8.65095 3.34911 10.8 6.00007 10.8C8.65104 10.8 10.8001 8.65095 10.8001 5.99998C10.8001 3.34901 8.65104 1.19998 6.00007 1.19998ZM7.97574 3.77573L4.8 6.95146L4.02426 6.17573C3.78995 5.94141 3.41005 5.94141 3.17574 6.17573C2.94142 6.41004 2.94142 6.78994 3.17574 7.02425L4.37574 8.22425C4.61005 8.45857 4.98995 8.45857 5.22426 8.22425L8.82426 4.62425C9.05858 4.38994 9.05858 4.01004 8.82426 3.77573C8.58995 3.54141 8.21005 3.54141 7.97574 3.77573Z" fill="#2F6DCE"/>
</svg>
