<svg width="16" height="16" viewBox="0 0 16 16" fill="none" xmlns="http://www.w3.org/2000/svg">
<path fill-rule="evenodd" clip-rule="evenodd" d="M8.8838 0.709125C9.26636 0.900403 9.57656 1.2106 9.76784 1.59316L15.2909 12.6392C15.7791 13.6157 15.3833 14.8031 14.4068 15.2913C14.1324 15.4286 13.8297 15.5 13.5228 15.5H2.47674C1.38501 15.5 0.499989 14.615 0.499989 13.5232C0.499989 13.2164 0.571439 12.9137 0.70868 12.6392L6.23171 1.59316C6.71995 0.616682 7.90733 0.220887 8.8838 0.709125ZM7.42791 2.35365L2.0675 13.0745C2.0231 13.1633 1.99998 13.2612 1.99998 13.3605C1.99998 13.7137 2.2863 14 2.6395 14H13.3603C13.4596 14 13.5575 13.9769 13.6463 13.9325C13.9622 13.7745 14.0903 13.3904 13.9323 13.0745L8.57191 2.35365C8.51003 2.22989 8.40968 2.12954 8.28591 2.06765C7.97 1.9097 7.58586 2.03775 7.42791 2.35365ZM7.99999 11C8.4142 11 8.74999 11.3358 8.74999 11.75C8.74999 12.1642 8.4142 12.5 7.99999 12.5C7.58577 12.5 7.24999 12.1642 7.24999 11.75C7.24999 11.3358 7.58577 11 7.99999 11ZM7.99999 5C8.4142 5 8.74999 5.33579 8.74999 5.75V8.75C8.74999 9.16421 8.4142 9.5 7.99999 9.5C7.58577 9.5 7.24999 9.16421 7.24999 8.75V5.75C7.24999 5.33579 7.58577 5 7.99999 5Z" fill="#E05C5C"/>
</svg>
