<svg width="18" height="20" viewBox="0 0 18 20" fill="none" xmlns="http://www.w3.org/2000/svg">
<path fill-rule="evenodd" clip-rule="evenodd" d="M9 0.833313C13.5563 0.833313 17.25 4.48689 17.25 8.99381C17.25 11.9762 14.7545 15.1295 9.86923 18.5645L9 19.1666L8.47548 18.8047C3.36288 15.2762 0.75 12.0455 0.75 8.99381C0.75 4.48689 4.44365 0.833313 9 0.833313ZM9 2.64676C5.45617 2.64676 2.58333 5.48843 2.58333 8.99382C2.58333 11.1961 4.68866 13.8834 9 16.95C13.3113 13.8834 15.4167 11.1961 15.4167 8.99382C15.4167 5.48843 12.5438 2.64676 9 2.64676ZM9 4.49998C11.025 4.49998 12.6667 6.1416 12.6667 8.16665C12.6667 10.1917 11.025 11.8333 9 11.8333C6.97496 11.8333 5.33333 10.1917 5.33333 8.16665C5.33333 6.1416 6.97496 4.49998 9 4.49998ZM9 6.33331C7.98748 6.33331 7.16667 7.15412 7.16667 8.16665C7.16667 9.17917 7.98748 9.99998 9 9.99998C10.0125 9.99998 10.8333 9.17917 10.8333 8.16665C10.8333 7.15412 10.0125 6.33331 9 6.33331Z" fill="#6F6F6F"/>
</svg>
