<svg width="26" height="25" viewBox="0 0 26 25" fill="none" xmlns="http://www.w3.org/2000/svg">
<path d="M17.2118 13.9769C16.6237 13.6288 15.5961 12.7776 14.6386 13.6887C14.4127 13.9187 14.2631 14.0727 14.1664 14.1716C13.2967 13.7596 11.7501 12.2664 11.3491 11.3241C12.77 10.0325 12.1123 9.57178 10.7149 6.91766C10.4761 6.50568 10.089 6.2323 9.6166 6.2323C9.03799 6.2323 8.81185 6.5174 7.98532 7.35382C6.9504 8.40082 6.34304 8.72968 6.73232 10.5038C7.84011 15.5538 15.233 20.6116 17.3266 18.3506C19.0366 16.6521 19.3664 16.4912 19.2663 15.723C19.1401 14.9582 18.5532 14.7707 17.2118 13.9769ZM16.2961 17.3937C16.1765 17.5264 15.4606 17.5702 14.273 17.0773C12.021 16.1427 9.6849 13.6902 8.72763 11.8593C8.42275 11.2761 7.74856 9.54688 8.12283 9.20959C8.2759 9.06439 9.30514 8.01337 9.56845 7.75867C10.2694 9.08728 10.6107 9.70837 10.724 9.96143C10.5224 10.2727 9.87771 10.5164 9.87771 11.28C10.1613 12.7717 12.1021 14.5999 13.262 15.2801C14.446 15.9744 14.8249 15.5103 15.2561 15.0682C15.6411 14.6738 15.6082 14.6978 15.6483 14.6938L17.7663 15.9385C17.518 16.1982 16.4675 17.2135 16.2961 17.3937Z" fill="#2F6DCE"/>
<path d="M13 0.5C6.367 0.5 1 5.86792 1 12.5C1 19.133 6.36792 24.5 13 24.5C19.633 24.5 25 19.1321 25 12.5C25 5.867 19.6321 0.5 13 0.5ZM13 23.0938C7.14429 23.0938 2.40625 18.3548 2.40625 12.5C2.40625 6.64429 7.1452 1.90625 13 1.90625C18.8557 1.90625 23.5938 6.6452 23.5938 12.5C23.5938 18.3557 18.8548 23.0938 13 23.0938Z" fill="#2F6DCE" stroke="#2F6DCE" stroke-width="0.2"/>
</svg>
