<svg width="17" height="17" viewBox="0 0 17 17" fill="none" xmlns="http://www.w3.org/2000/svg">
<path fill-rule="evenodd" clip-rule="evenodd" d="M12.5352 10.4986C12.3343 10.3981 11.3464 9.91211 11.1622 9.8451C10.978 9.77808 10.8441 9.74455 10.7101 9.94564C10.5762 10.1467 10.1911 10.5992 10.0739 10.7332C9.95669 10.8673 9.8395 10.8841 9.63857 10.7835C9.43763 10.683 8.79021 10.4708 8.02273 9.7865C7.42541 9.25391 7.02214 8.59606 6.90491 8.39497C6.78772 8.19388 6.89244 8.08519 6.99306 7.98503C7.08341 7.89507 7.19396 7.75045 7.29442 7.63314C7.39489 7.51583 7.42838 7.43205 7.49536 7.29801C7.56234 7.16394 7.52885 7.04663 7.4786 6.94608C7.42838 6.84554 7.02655 5.85685 6.8591 5.45467C6.69602 5.06299 6.53035 5.11599 6.40701 5.10985C6.28994 5.10401 6.15586 5.10278 6.02191 5.10278C5.88795 5.10278 5.67029 5.15307 5.48608 5.35412C5.3019 5.55521 4.78284 6.04121 4.78284 7.02986C4.78284 8.01855 5.50284 8.97372 5.60331 9.10779C5.70378 9.24186 7.02017 11.2708 9.0358 12.1408C9.51519 12.3478 9.88948 12.4714 10.1813 12.564C10.6626 12.7168 11.1007 12.6953 11.4469 12.6436C11.8329 12.5859 12.6357 12.1576 12.8031 11.6884C12.9705 11.2192 12.9705 10.817 12.9203 10.7332C12.8701 10.6495 12.7362 10.5992 12.5352 10.4986ZM8.86895 15.5029H8.86624C7.66688 15.5024 6.49054 15.1803 5.46435 14.5715L5.22026 14.4267L2.69056 15.0901L3.36579 12.6244L3.20685 12.3717C2.53779 11.3078 2.18443 10.0782 2.18494 8.81569C2.1864 5.13163 5.18481 2.13439 8.87161 2.13439C10.6569 2.13508 12.335 2.83102 13.597 4.09396C14.8589 5.35694 15.5535 7.03573 15.5528 8.8211C15.5513 12.5054 12.5529 15.5029 8.86895 15.5029ZM14.5574 3.13428C13.0392 1.61474 11.0201 0.777504 8.86887 0.776655C4.43645 0.776655 0.828985 4.38273 0.827208 8.81519C0.826629 10.2321 1.1969 11.6151 1.90061 12.8342L0.759766 17L5.02277 15.8821C6.19733 16.5226 7.51975 16.8601 8.86566 16.8606H8.86895H8.86899C13.301 16.8606 16.9088 13.2541 16.9106 8.8216C16.9114 6.67357 16.0757 4.65378 14.5574 3.13428Z" fill="#25CF43"/>
</svg>
