<svg width="18" height="20" fill="none" xmlns="http://www.w3.org/2000/svg"><path fill-rule="evenodd" clip-rule="evenodd" d="M9 .833c4.556 0 8.25 3.654 8.25 8.16 0 2.983-2.495 6.136-7.38 9.571l-.87.603-.525-.362C3.363 15.276.75 12.045.75 8.994.75 4.487 4.444.834 9 .834zm0 1.814c-3.544 0-6.417 2.841-6.417 6.347 0 2.202 2.106 4.89 6.417 7.956 4.311-3.067 6.417-5.754 6.417-7.956 0-3.506-2.873-6.347-6.417-6.347zM9 4.5a3.667 3.667 0 110 7.333A3.667 3.667 0 019 4.5zm0 1.833A1.833 1.833 0 109 10a1.833 1.833 0 000-3.667z" fill="#6F6F6F"/></svg>