<svg width="26" height="25" fill="none" xmlns="http://www.w3.org/2000/svg"><path d="M17.212 13.977c-.588-.348-1.616-1.2-2.573-.288l-.473.483c-.87-.412-2.416-1.906-2.817-2.848 1.421-1.291.763-1.752-.634-4.406-.239-.412-.626-.686-1.098-.686-.579 0-.805.285-1.632 1.122C6.95 8.4 6.343 8.73 6.732 10.504c1.108 5.05 8.501 10.108 10.595 7.847 1.71-1.699 2.04-1.86 1.94-2.628-.127-.765-.714-.952-2.055-1.746zm-.916 3.417c-.12.132-.835.176-2.023-.317-2.252-.934-4.588-3.387-5.545-5.218-.305-.583-.98-2.312-.605-2.65.153-.145 1.182-1.196 1.445-1.45.701 1.328 1.043 1.95 1.156 2.202-.202.312-.846.555-.846 1.319.283 1.492 2.224 3.32 3.384 4 1.184.694 1.563.23 1.994-.212.385-.394.352-.37.392-.374l2.118 1.244c-.248.26-1.298 1.275-1.47 1.456z" fill="#2F6DCE"/><path d="M13 .5C6.367.5 1 5.868 1 12.5c0 6.633 5.368 12 12 12 6.633 0 12-5.368 12-12 0-6.633-5.368-12-12-12zm0 22.594A10.588 10.588 0 012.406 12.5 10.588 10.588 0 0113 1.906 10.588 10.588 0 0123.594 12.5 10.588 10.588 0 0113 23.094z" fill="#2F6DCE" stroke="#2F6DCE" stroke-width=".2"/></svg>