<svg width="17" height="17" fill="none" xmlns="http://www.w3.org/2000/svg"><path fill-rule="evenodd" clip-rule="evenodd" d="M12.535 10.499c-.2-.1-1.189-.587-1.373-.654-.184-.067-.318-.1-.452.1-.134.202-.519.654-.636.788-.117.134-.235.151-.435.05-.201-.1-.849-.312-1.616-.996-.598-.533-1-1.19-1.118-1.392-.117-.201-.013-.31.088-.41.09-.09.201-.235.301-.352.1-.117.134-.2.201-.335.067-.134.034-.251-.016-.352-.05-.1-.452-1.09-.62-1.491-.163-.392-.329-.339-.452-.345a8.035 8.035 0 00-.385-.007.738.738 0 00-.536.251c-.184.201-.703.687-.703 1.676 0 .989.72 1.944.82 2.078.1.134 1.417 2.163 3.433 3.033.48.207.853.33 1.145.423.482.153.92.131 1.266.08.386-.058 1.189-.486 1.356-.956.167-.469.167-.871.117-.955-.05-.084-.184-.134-.385-.234zM8.87 15.503h-.003c-1.2 0-2.375-.323-3.402-.931l-.244-.145-2.53.663.676-2.466-.16-.252a6.665 6.665 0 01-1.021-3.556c.001-3.684 3-6.682 6.687-6.682a6.64 6.64 0 014.725 1.96 6.64 6.64 0 011.956 4.727 6.692 6.692 0 01-6.684 6.682zm5.688-12.369A7.99 7.99 0 008.87.777C4.436.777.829 4.383.827 8.815c0 1.417.37 2.8 1.074 4.02L.76 17l4.263-1.118a8.036 8.036 0 003.843.979h.003c4.432 0 8.04-3.607 8.042-8.04a7.99 7.99 0 00-2.354-5.687z" fill="#25CF43"/></svg>